<?xml version="1.0" encoding="UTF-8" standalone="no"?>
<svg
   xmlns:osb="http://www.openswatchbook.org/uri/2009/osb"
   xmlns:dc="http://purl.org/dc/elements/1.1/"
   xmlns:cc="http://creativecommons.org/ns#"
   xmlns:rdf="http://www.w3.org/1999/02/22-rdf-syntax-ns#"
   xmlns:svg="http://www.w3.org/2000/svg"
   xmlns="http://www.w3.org/2000/svg"
   xmlns:sodipodi="http://sodipodi.sourceforge.net/DTD/sodipodi-0.dtd"
   xmlns:inkscape="http://www.inkscape.org/namespaces/inkscape"
   height="1506.3723"
   id="svg2"
   inkscape:version="0.92.3 (2405546, 2018-03-11)"
   sodipodi:docname="ratt-logo-transparent-url.svg"
   sodipodi:version="0.32"
   viewBox="0 0 3318.9981 1412.224"
   width="3540.2646"
   version="1.1"
   inkscape:export-filename="/home/oms/projects/logo-designs/ratt/ratt-logo-transparent-1000pix.png"
   inkscape:export-xdpi="27.116617"
   inkscape:export-ydpi="27.116617">
  <metadata
     id="metadata3">
    <rdf:RDF>
      <cc:Work
         rdf:about="">
        <dc:title></dc:title>
        <dc:description />
        <dc:subject>
          <rdf:Bag>
            <rdf:li>shape</rdf:li>
          </rdf:Bag>
        </dc:subject>
        <dc:publisher>
          <cc:Agent
             rdf:about="http://www.openclipart.org/">
            <dc:title>Open Clip Art Library</dc:title>
          </cc:Agent>
        </dc:publisher>
        <dc:creator>
          <cc:Agent>
            <dc:title>yves GUILLOU</dc:title>
          </cc:Agent>
        </dc:creator>
        <dc:rights>
          <cc:Agent>
            <dc:title />
          </cc:Agent>
        </dc:rights>
        <dc:date />
        <dc:format>image/svg+xml</dc:format>
        <dc:type
           rdf:resource="http://purl.org/dc/dcmitype/StillImage" />
        <cc:license
           rdf:resource="http://web.resource.org/cc/PublicDomain" />
        <dc:language>en</dc:language>
      </cc:Work>
      <cc:License
         rdf:about="http://web.resource.org/cc/PublicDomain">
        <cc:permits
           rdf:resource="http://web.resource.org/cc/Reproduction" />
        <cc:permits
           rdf:resource="http://web.resource.org/cc/Distribution" />
        <cc:permits
           rdf:resource="http://web.resource.org/cc/DerivativeWorks" />
      </cc:License>
    </rdf:RDF>
  </metadata>
  <defs
     id="defs6">
    <linearGradient
       id="linearGradient5260"
       osb:paint="solid">
      <stop
         style="stop-color:#ffffff;stop-opacity:1;"
         offset="0"
         id="stop5262" />
    </linearGradient>
    <linearGradient
       id="linearGradient3793"
       osb:paint="solid">
      <stop
         style="stop-color:#782670;stop-opacity:1;"
         offset="0"
         id="stop3795" />
    </linearGradient>
  </defs>
  <sodipodi:namedview
     bordercolor="#666666"
     borderopacity="1.0"
     id="base"
     inkscape:current-layer="svg2"
     inkscape:cx="1389.7131"
     inkscape:cy="753.18615"
     inkscape:pageopacity="0.0"
     inkscape:pageshadow="2"
     inkscape:window-height="1337"
     inkscape:window-width="2548"
     inkscape:window-x="0"
     inkscape:window-y="0"
     inkscape:zoom="0.54939396"
     pagecolor="#ffffff"
     showgrid="false"
     inkscape:window-maximized="0"
     fit-margin-top="0"
     fit-margin-left="0"
     fit-margin-right="0"
     fit-margin-bottom="0" />
  <g
     aria-label="RATT"
     transform="matrix(101.5244,0,0,102.98803,46271.804,-2539.4029)"
     style="font-style:normal;font-variant:normal;font-weight:bold;font-stretch:normal;font-size:12.00009346px;line-height:0.01%;font-family:'TeX Gyre Pagella';-inkscape-font-specification:'TeX Gyre Pagella, Bold';font-variant-ligatures:normal;font-variant-caps:normal;font-variant-numeric:normal;font-feature-settings:normal;text-align:start;letter-spacing:0px;word-spacing:0px;writing-mode:lr-tb;text-anchor:start;fill:#782670;fill-opacity:1;stroke:none"
     id="flowRoot3018">
    <path
       d="m -447.74222,38.369769 v -0.480004 c -0.432,-0.084 -0.576,-0.144001 -0.84,-0.540004 l -2.17202,-3.288026 c 0.67201,-0.276002 0.94801,-0.468003 1.27201,-0.816006 0.336,-0.384003 0.51601,-0.816006 0.51601,-1.32001 0,-1.164009 -0.76801,-1.764014 -2.28002,-1.764014 -0.79201,0 -1.59601,0.036 -2.38802,0.036 -0.70801,0 -1.42801,-0.012 -2.13602,-0.036 v 0.444003 l 0.44401,0.036 c 0.54,0.048 0.576,0.120001 0.576,1.176009 v 4.896038 c 0,1.068008 -0.012,1.092008 -0.576,1.140009 l -0.44401,0.036 v 0.480004 c 0.62401,-0.024 1.23601,-0.036 1.86002,-0.036 0.624,0 1.24801,0.012 1.87201,0.036 v -0.480004 l -0.444,-0.036 c -0.56401,-0.048 -0.57601,-0.072 -0.57601,-1.140009 V 30.86971 c 0.168,-0.072 0.39601,-0.108 0.70801,-0.108 1.06801,0 1.68001,0.564004 1.68001,1.536012 0,0.636004 -0.3,1.176009 -0.792,1.464011 -0.30001,0.180001 -0.60001,0.228002 -1.04401,0.228002 v 0.276002 l 2.52002,4.104032 c 0.36,-0.024 0.72,-0.036 1.08001,-0.036 0.384,0 0.78,0.012 1.164,0.036 z"
       style="font-style:normal;font-variant:normal;font-weight:bold;font-stretch:normal;font-size:12.00009346px;line-height:1.25;font-family:'TeX Gyre Pagella';-inkscape-font-specification:'TeX Gyre Pagella, Bold';font-variant-ligatures:normal;font-variant-caps:normal;font-variant-numeric:normal;font-feature-settings:normal;text-align:start;writing-mode:lr-tb;text-anchor:start;fill:#782670"
       id="path32" />
    <path
       style="font-style:normal;font-variant:normal;font-weight:bold;font-stretch:normal;font-size:12.00009346px;line-height:1.25;font-family:'TeX Gyre Pagella';-inkscape-font-specification:'TeX Gyre Pagella, Bold';font-variant-ligatures:normal;font-variant-caps:normal;font-variant-numeric:normal;font-feature-settings:normal;text-align:start;writing-mode:lr-tb;text-anchor:start;fill:#782670;stroke-width:109.07050323"
       d="M 1540.875 853.88867 A 378.63245 547.15333 39.473181 0 1 1456.9668 932.6543 L 1442.7402 943.72852 A 378.63245 547.15333 39.473181 0 1 1395.1992 976.63281 L 1468.0137 1157.0332 L 1202.9102 1157.0332 L 1246.1758 1045.5566 A 378.63245 547.15333 39.473181 0 1 1158.3027 1062.9629 L 1031.373 1374.5469 C 1010.5808 1425.9589 987.19083 1451.0061 958.60156 1453.6426 L 919.61523 1457.5977 L 919.61523 1506.373 C 968.99779 1503.7366 1017.0795 1502.418 1066.4609 1502.418 C 1115.8435 1502.418 1163.9252 1503.7366 1213.3066 1506.373 L 1213.3066 1457.5977 L 1148.332 1453.6426 C 1108.0471 1451.0061 1106.7465 1407.5036 1117.1426 1378.502 L 1171.7227 1230.8574 L 1497.9023 1230.8574 L 1556.3809 1381.1387 C 1564.1779 1402.2307 1573.2743 1451.0061 1538.1875 1453.6426 L 1469.3125 1457.5977 L 1469.3125 1506.373 C 1535.5887 1503.7366 1600.5656 1502.418 1666.8418 1502.418 C 1735.716 1502.418 1803.2899 1503.7366 1872.1641 1506.373 L 1872.1641 1457.5977 L 1840.9766 1453.6426 C 1804.5902 1448.3696 1786.3967 1433.8682 1769.502 1395.6387 L 1540.875 853.88867 z "
       transform="matrix(0.00923423,0,0,0.009103,-455.77028,24.657263)"
       id="path34" />
    <path
       d="m -431.09434,30.221705 -0.072,-0.06 c -1.23601,0.024 -2.48401,0.036 -3.72002,0.036 -1.24801,0 -2.48402,-0.012 -3.73203,-0.036 l -0.072,0.06 c 0.096,0.576005 0.12,0.996008 0.156,1.908015 h 0.48 l 0.06,-0.828006 c 0.036,-0.480004 0.48,-0.396003 0.85201,-0.396003 h 1.40401 v 5.808045 c 0,1.068008 -0.012,1.092008 -0.57601,1.140009 l -0.444,0.036 v 0.480004 c 0.62401,-0.024 1.23601,-0.036 1.86002,-0.036 0.624,0 1.24801,0.012 1.87201,0.036 v -0.480004 l -0.444,-0.036 c -0.56401,-0.048 -0.57601,-0.072 -0.57601,-1.140009 v -5.808045 h 1.40401 c 0.58801,0 0.67201,-0.084 0.85201,0.396003 l 0.06,0.828006 h 0.48 c 0.024,-0.912007 0.06,-1.33201 0.156,-1.908015 z"
       style="font-style:normal;font-variant:normal;font-weight:bold;font-stretch:normal;font-size:12.00009346px;line-height:1.25;font-family:'TeX Gyre Pagella';-inkscape-font-specification:'TeX Gyre Pagella, Bold';font-variant-ligatures:normal;font-variant-caps:normal;font-variant-numeric:normal;font-feature-settings:normal;text-align:start;writing-mode:lr-tb;text-anchor:start;fill:#782670"
       id="path36" />
    <path
       d="m -423.07865,30.221705 -0.072,-0.06 c -1.23601,0.024 -2.48402,0.036 -3.72003,0.036 -1.24801,0 -2.48402,-0.012 -3.73203,-0.036 l -0.072,0.06 c 0.096,0.576005 0.12,0.996008 0.156,1.908015 h 0.48001 l 0.06,-0.828006 c 0.036,-0.480004 0.48,-0.396003 0.85201,-0.396003 h 1.40401 v 5.808045 c 0,1.068008 -0.012,1.092008 -0.57601,1.140009 l -0.444,0.036 v 0.480004 c 0.624,-0.024 1.23601,-0.036 1.86001,-0.036 0.62401,0 1.24801,0.012 1.87202,0.036 v -0.480004 l -0.44401,-0.036 c -0.564,-0.048 -0.576,-0.072 -0.576,-1.140009 v -5.808045 h 1.40401 c 0.58801,0 0.67201,-0.084 0.85201,0.396003 l 0.06,0.828006 h 0.48 c 0.024,-0.912007 0.06,-1.33201 0.156,-1.908015 z"
       style="font-style:normal;font-variant:normal;font-weight:bold;font-stretch:normal;font-size:12.00009346px;line-height:1.25;font-family:'TeX Gyre Pagella';-inkscape-font-specification:'TeX Gyre Pagella, Bold';font-variant-ligatures:normal;font-variant-caps:normal;font-variant-numeric:normal;font-feature-settings:normal;text-align:start;writing-mode:lr-tb;text-anchor:start;fill:#782670"
       id="path38" />
  </g>
  <path
     style="fill:#782670;fill-opacity:1;stroke:#782670;stroke-width:1.06666672;stroke-opacity:1"
     d="M 1524.1035 0.54882812 C 1486.8263 0.71949479 1450.8629 12.286913 1416.5586 25.873047 C 1374.9064 38.887127 1333.551 52.957718 1293.5625 70.519531 C 1273.2617 78.528065 1253.1778 86.963628 1233.2285 95.798828 C 1218.1867 102.34763 1201.8807 104.51122 1186.1816 108.6582 C 1169.2983 110.77756 1152.4547 113.81456 1135.4336 111.44336 C 1112.4392 110.52667 1089.5058 106.48325 1066.4961 107.36133 C 1039.1097 109.2121 1011.758 112.13019 985.06055 118.72656 C 966.69479 122.47131 948.37221 126.20506 930.3457 131.33594 C 917.27962 133.53956 903.83088 134.74913 890.61719 133.47852 C 877.40623 131.88076 863.11387 121.09997 865.25977 106.4668 C 865.57575 91.40482 856.96998 75.209882 841.25586 72.173828 C 827.99411 69.349508 814.20181 71.606941 800.9082 72.365234 C 781.83527 77.281608 759.06743 83.553384 750.90234 103.68555 C 742.91119 120.38955 748.35537 139.95745 759.48242 153.82422 C 769.7 169.21473 777.3555 189.8433 769.73438 207.94922 C 764.13025 220.04255 751.01461 225.72846 742.49414 235.46094 C 731.02575 247.00387 718.0928 256.86815 704.48633 265.70312 C 685.38234 281.23358 677.32055 305.72961 672.75781 329.05078 C 667.99745 337.28033 664.53973 354.0214 679.82422 350.46289 C 695.91685 355.74012 675.43025 383.18422 668.51367 363.90625 C 661.08187 370.11745 663.16409 387.08485 658.69922 397.07227 C 654.16117 418.94373 647.5617 440.35274 641.07227 461.64062 C 637.29619 479.95956 623.92312 496.60094 605.64453 501.9043 C 585.09462 512.02739 584.40965 544.65374 603.49805 556.78516 C 615.6261 566.01726 631.96518 564.79958 643.55273 574.64844 C 658.42297 576.54966 669.42067 583.79809 684.35352 586.35938 C 699.42748 586.90187 714.60794 581.34971 727.48633 573.85938 C 735.97915 562.74567 748.62012 554.29724 763.21484 555.20508 C 774.9791 546.96988 792.35793 545.56888 799.82031 533.37891 C 814.09692 532.04995 824.80844 522.53427 837.12109 516.44531 C 852.98731 513.85747 863.36623 499.40469 878.62109 495.03125 C 892.84581 490.73216 901.2745 478.12616 912.69336 470.50781 C 920.17675 460.65512 931.36134 457.68216 937.375 446.83203 C 945.43423 437.27886 952.3325 426.25471 955.43164 414.03711 C 952.99349 404.1186 966.99545 397.00946 963.70312 389.71484 C 957.04763 386.10983 959.31722 371.0363 952.04883 364.31641 C 946.02909 354.51417 936.59741 347.52216 931.19141 337.35352 C 918.45013 320.06029 892.29067 315.29703 886.12305 292.82812 C 881.58363 281.01811 895.63323 262.43204 908.24414 265.96484 C 920.48782 263.15823 931.59532 277.00421 932.35547 289.66992 C 934.60369 303.88774 935.68586 319.21512 945.32812 330.67773 C 950.062 343.23827 955.58363 355.9633 966.96094 363.98047 C 981.47313 375.65503 998.02031 384.27842 1014.416 392.90039 C 1026.828 404.12578 1043.7964 406.00052 1059.4277 408.86719 C 1072.2541 412.33161 1086.126 407.55596 1098.4629 413.64844 C 1113.3866 414.54166 1128.3415 411.68761 1143.2109 414.36719 C 1149.1134 415.64476 1154.11 414.21093 1158.8438 413.23047 A 48.341537 85.308587 39.09816 0 1 1218.0469 364.54688 A 48.341537 85.308587 39.09816 0 1 1261.7559 372.38477 L 1262.1484 371.71094 L 1266.1016 369.92773 L 1269.6348 369.52344 L 1269.9297 369.49609 L 1271.4941 369.875 L 1273.166 369.12109 L 1276.6992 368.71875 L 1276.9941 368.68945 L 1278.5586 369.06836 L 1280.2344 368.31445 L 1283.7637 367.91211 L 1284.0605 367.88477 L 1285.623 368.26562 L 1287.2988 367.50781 L 1290.832 367.10742 L 1291.125 367.08008 L 1292.6875 367.45898 L 1294.3633 366.70312 L 1297.8965 366.30078 L 1298.1895 366.27344 L 1299.7539 366.65234 L 1301.4297 365.89844 L 1304.9609 365.49414 L 1305.2559 365.4668 L 1306.8203 365.8457 L 1308.4941 365.0918 L 1312.0273 364.6875 L 1312.3203 364.66016 L 1313.8848 365.03906 L 1315.5586 364.28516 L 1319.0918 363.88086 L 1319.3867 363.85352 L 1320.9512 364.23438 L 1322.625 363.47852 L 1326.1562 363.07812 L 1326.4512 363.04883 L 1328.0176 363.42773 L 1329.6895 362.67383 L 1333.2227 362.27148 L 1333.5176 362.24414 L 1335.0801 362.62305 L 1336.7559 361.86719 L 1340.2871 361.46484 L 1340.584 361.4375 L 1342.1445 361.81641 L 1343.8203 361.06055 L 1347.3535 360.6582 L 1347.6484 360.63086 L 1349.2129 361.00977 L 1350.8848 360.25586 L 1354.418 359.85156 L 1354.7129 359.82422 L 1356.2773 360.20508 L 1357.9512 359.44922 L 1361.4824 359.04688 L 1361.7793 359.01953 L 1363.3438 359.39844 L 1365.0176 358.64453 L 1368.5508 358.24023 L 1368.8438 358.21289 L 1370.4082 358.5918 L 1372.082 357.83789 L 1375.6152 357.43555 L 1375.9082 357.40625 L 1377.4727 357.78516 L 1379.1484 357.03125 L 1382.6797 356.62891 L 1382.9746 356.60156 L 1384.5352 356.98047 L 1386.2129 356.22461 L 1389.7461 355.82227 L 1390.0391 355.79688 L 1391.6016 356.17578 L 1393.2773 355.41797 L 1396.8105 355.01758 L 1397.1035 354.99023 L 1398.668 355.36914 L 1400.3438 354.61523 L 1403.875 354.21094 L 1404.1719 354.18359 L 1405.7363 354.5625 L 1407.4082 353.80859 L 1410.9414 353.4043 L 1411.2363 353.37695 L 1412.8008 353.75586 L 1414.4727 353.00195 L 1418.0059 352.59766 L 1418.3008 352.57031 L 1419.8652 352.94922 L 1421.5391 352.19531 L 1425.0703 351.79297 L 1425.3672 351.76562 L 1426.9316 352.14453 L 1428.6035 351.39062 L 1432.1367 350.98828 L 1432.4316 350.96094 L 1433.9941 351.33984 L 1435.668 350.58398 L 1439.2031 350.18164 L 1439.4961 350.1543 L 1441.0586 350.5332 L 1442.7363 349.77734 L 1446.2676 349.375 L 1446.5625 349.34766 L 1448.127 349.72656 L 1449.8008 348.97266 L 1453.334 348.56836 L 1453.627 348.54102 L 1455.1914 348.92188 L 1456.8652 348.16602 L 1460.3984 347.76172 L 1460.6914 347.73633 L 1462.2559 348.11523 L 1463.9316 347.36133 L 1467.4629 346.95703 L 1467.7578 346.92969 L 1469.3223 347.30859 L 1470.9961 346.55469 L 1474.5293 346.15234 L 1474.8223 346.12305 L 1476.3867 346.50195 L 1478.0605 345.74805 L 1481.5938 345.3457 L 1481.8867 345.31836 L 1483.4492 345.69727 L 1485.127 344.94141 L 1488.6582 344.53906 L 1488.9551 344.51172 L 1493.1719 345.53516 L 1496.0059 348.81641 L 1496.4082 353.13672 L 1494.2266 356.88672 L 1490.2715 358.66992 L 1486.7383 359.07227 L 1486.4434 359.09961 L 1484.8789 358.7207 L 1483.207 359.47461 L 1479.6738 359.87891 L 1479.3789 359.90625 L 1477.8145 359.52734 L 1476.1406 360.28125 L 1472.6074 360.68555 L 1472.3125 360.71289 L 1470.748 360.33398 L 1469.0742 361.08789 L 1465.541 361.49219 L 1465.248 361.51953 L 1463.6836 361.14062 L 1462.0098 361.89453 L 1458.4766 362.29688 L 1458.1836 362.32422 L 1456.6191 361.94531 L 1454.9434 362.69922 L 1451.4121 363.10156 L 1451.1172 363.12891 L 1449.5547 362.75 L 1447.8789 363.50586 L 1444.3457 363.9082 L 1444.0527 363.93555 L 1442.4902 363.55664 L 1440.8145 364.3125 L 1437.2812 364.71484 L 1436.9883 364.74219 L 1435.4238 364.36328 L 1433.748 365.11719 L 1430.2168 365.52148 L 1429.9199 365.54883 L 1428.3555 365.16797 L 1426.6836 365.92383 L 1423.1504 366.32812 L 1422.8555 366.35352 L 1421.291 365.97461 L 1419.6191 366.72852 L 1416.0859 367.13281 L 1415.791 367.16016 L 1414.2266 366.78125 L 1412.5527 367.53516 L 1409.0215 367.9375 L 1408.7246 367.9668 L 1407.1602 367.58789 L 1405.4883 368.3418 L 1401.9551 368.74414 L 1401.6602 368.77148 L 1400.0977 368.39258 L 1398.4238 369.14844 L 1394.8887 369.55078 L 1394.5957 369.57812 L 1393.0332 369.19727 L 1391.3555 369.95508 L 1387.8242 370.35547 L 1387.5293 370.38281 L 1385.9648 370.00391 L 1384.291 370.75781 L 1380.7578 371.16211 L 1380.4648 371.18945 L 1378.9004 370.81055 L 1377.2266 371.56445 L 1373.6934 371.96875 L 1373.4004 371.99609 L 1371.8359 371.61719 L 1370.1602 372.37109 L 1366.6289 372.77539 L 1366.334 372.80273 L 1364.7695 372.42383 L 1363.0957 373.17773 L 1359.5625 373.58008 L 1359.2695 373.60938 L 1357.7051 373.22852 L 1356.0312 373.98438 L 1352.498 374.38477 L 1352.2051 374.41211 L 1350.6426 374.0332 L 1348.9648 374.78906 L 1345.4336 375.19141 L 1345.1367 375.21875 L 1343.5742 374.83984 L 1341.9004 375.5957 L 1338.3672 375.99805 L 1338.0723 376.02539 L 1336.5078 375.64648 L 1334.8359 376.40039 L 1331.3027 376.80469 L 1331.0078 376.83203 L 1329.4434 376.45312 L 1327.7695 377.20703 L 1324.2383 377.61133 L 1323.9414 377.63867 L 1322.377 377.25781 L 1320.7051 378.01367 L 1317.1719 378.41602 L 1316.877 378.44336 L 1315.3125 378.06445 L 1313.6387 378.81836 L 1310.1055 379.2207 L 1309.8125 379.25 L 1308.248 378.87109 L 1306.5723 379.625 L 1303.041 380.02734 L 1302.7461 380.05469 L 1301.1836 379.67578 L 1299.5078 380.43164 L 1295.9746 380.83398 L 1295.6816 380.86133 L 1294.1191 380.48242 L 1292.4434 381.23633 L 1288.9102 381.64062 L 1288.6152 381.66602 L 1287.0508 381.28711 L 1285.377 382.04102 L 1281.8438 382.44531 L 1281.5508 382.47266 L 1279.9863 382.09375 L 1278.3125 382.84766 L 1274.7793 383.25195 L 1274.4863 383.2793 L 1272.9199 382.90039 L 1271.2461 383.6543 L 1267.7148 384.05664 L 1267.4746 384.08008 A 48.341537 85.308587 39.09816 0 1 1267.6914 411.30664 A 48.341537 85.308587 39.09816 0 1 1263.4531 426.00977 C 1265.3247 426.73075 1267.1936 427.45892 1269.0508 428.20898 C 1279.7938 437.2668 1294.7652 440.0868 1304.127 450.84766 C 1315.5131 457.60126 1326.8694 464.83745 1338.7676 470.42188 C 1347.6441 470.72181 1357.809 481.21954 1363.3672 479.92578 C 1370.3652 479.87138 1380.1808 486.32427 1389.6738 484.59766 C 1401.1262 488.69344 1414.7373 489.41802 1425.9727 498.15039 C 1438.9583 500.93162 1451.9789 504.24854 1465.2031 506.02539 C 1474.4334 507.784 1485.4703 504.10214 1494.3828 509.32422 C 1484.9538 512.90491 1473.3059 512.64906 1464.5879 519.14453 C 1447.4541 529.44426 1444.0591 552.81443 1448.6406 570.74414 C 1453.8016 590.11267 1473.0234 600.0002 1489.2246 608.98047 C 1504.4081 614.06282 1521.4233 611.43196 1529.4375 596.80273 C 1539.3328 586.54343 1528.1354 571.93323 1535.4023 561.20117 C 1542.7939 552.46848 1555.6056 553.44151 1565.3125 548.41602 C 1578.503 549.27255 1590.0185 544.67567 1600.3477 536.13477 C 1615.1887 532.72197 1623.6532 518.00225 1638.041 513.27734 C 1650.9501 505.43969 1659.2706 491.17116 1668.2734 479.20508 C 1673.7512 466.82737 1683.0271 456.5934 1686.4141 443.01953 C 1692.0752 431.68374 1699.0958 409.78485 1680.6543 406.11914 C 1671.5053 411.93791 1661.9847 404.92704 1671.9688 397.02539 C 1680.6816 386.54315 1697.357 378.65475 1710.1289 385.86328 C 1720.6001 396.50669 1729.644 411.53981 1727.0488 427.08008 C 1715.7924 502.72296 1693.7368 576.75488 1661.9355 646.31445 C 1651.9204 671.13429 1637.7225 694.06504 1624.3555 717.19336 C 1583.1899 785.74013 1530.2122 848.5622 1462.9141 892.68945 C 1396.6505 937.57489 1324.3283 974.24274 1247.5938 997.42578 C 1182.6214 1016.9799 1114.0756 1023.995 1046.416 1020.3203 C 1012.7878 1017.8081 978.81086 1013.887 946.81445 1002.7969 C 936.85876 1000.0227 925.73941 998.88816 916.10352 1003.4141 C 916.92011 1021.1324 937.7969 1025.1034 945.50391 1037.5723 C 954.1766 1043.2113 965.72601 1043.2515 972.56445 1051.9844 C 982.30973 1054.9299 995.2713 1059.425 1005.7324 1062.9199 C 1019.1345 1068.3007 1033.4701 1069.6626 1047.543 1073.4746 C 1060.2247 1075.2611 1073.0732 1077.5544 1085.9531 1078.0586 C 1101.2585 1082.3454 1117.4883 1077.2443 1133.1426 1079.9336 C 1146.4497 1081.0327 1159.6902 1078.3692 1172.918 1079.1738 C 1186.3213 1074.9217 1200.0195 1077.1606 1213.5762 1074.7441 C 1226.7353 1073.9662 1236.9131 1067.0929 1250.002 1070.2773 C 1262.0768 1063.0198 1278.2177 1066.6426 1292.457 1061.4355 C 1303.1075 1058.4354 1314.5797 1055.0855 1324.1113 1053.5703 C 1330.9454 1048.0167 1341.6824 1050.0747 1350.0176 1044.0547 C 1362.6176 1041.2916 1375.5458 1040.1297 1387.3047 1034.0977 C 1401.4175 1030.8424 1414.0394 1027.422 1426.6953 1020.2637 C 1439.4994 1015.8134 1453.0077 1013.9039 1464.9883 1007.5703 C 1474.0143 1007.0655 1481.9054 989.73608 1486.9648 998.56445 C 1498.2554 991.3924 1510.0559 987.55948 1521.6914 980.5918 C 1534.7516 974.8671 1543.7985 963.30933 1557.4375 958.62891 C 1566.7562 949.72043 1577.6482 942.47031 1588.0195 934.18359 C 1594.637 924.3517 1609.0738 920.52365 1616.0742 909.89453 C 1622.3487 898.92642 1634.7747 890.16053 1645.3555 880.42188 C 1655.6918 872.01483 1661.2948 859.68027 1670.2363 850.26758 C 1679.7344 843.58886 1685.0791 828.66487 1693.1699 818.44727 C 1699.4115 823.44311 1697.2315 809.11551 1702.4102 806.63477 C 1710.3843 794.37407 1721.1285 784.14026 1726.1738 770.09375 C 1735.6474 757.80906 1742.1371 743.70147 1751.2246 731.20312 C 1758.5696 721.385 1758.4364 707.79735 1767.584 698.93164 C 1777.9443 691.92215 1773.7355 677.59888 1782.4766 667.64453 C 1786.9693 655.09797 1792.2059 642.41022 1797.5566 629.75977 C 1804.6712 623.02675 1803.9316 607.10771 1807.5879 602.87891 C 1814.05 600.66141 1806.8784 586.80341 1814.5801 583 C 1818.18 569.67915 1823.8411 556.9673 1825.2852 543.13477 C 1828.5679 529.15002 1832.1787 515.08655 1832.5801 500.65039 C 1840.2176 486.62948 1836.5366 470.0491 1841.0586 455.22852 C 1843.3634 439.82628 1842.4415 424.34761 1843.0449 408.89844 C 1844.4912 391.99913 1843.8303 375.01098 1842.8438 358.09375 C 1840.1768 336.3586 1837.5753 314.17621 1827.6504 294.28906 C 1823.004 280.14069 1820.0814 265.39139 1812.8223 252.20312 C 1804.8717 232.3786 1791.3826 215.72978 1779.5 198.25586 C 1773.3366 182.71741 1770.0217 165.78318 1763.3223 150.11523 C 1754.5981 129.46115 1743.3264 109.53489 1728.6543 92.519531 C 1700.8943 62.671531 1668.6061 36.221868 1630.6895 20.427734 C 1599.0395 6.187201 1564.2366 1.3026837 1529.7891 0.71484375 L 1526.9453 0.625 L 1524.1035 0.54882812 z M 998.44727 401.46484 C 997.7677 401.45414 997.08484 401.47127 996.40234 401.51562 C 972.77082 404.13451 961.0825 432.33503 967.27734 453.32031 C 971.41873 471.43573 983.20483 487.87596 999.53906 496.90625 C 1012.8056 494.0639 1009.4143 472.61443 1025.9277 479.29102 C 1036.4944 483.37624 1048.1161 484.56112 1054.3887 490.61328 C 1067.3863 487.89168 1079.63 496.52355 1093.2227 489.43555 C 1107.26 484.63491 1121.0315 478.82087 1135.9023 476.94727 C 1136.714 476.68406 1137.5286 476.4604 1138.3457 476.26758 A 48.341537 85.308587 39.09816 0 1 1139.7422 455.51953 A 48.341537 85.308587 39.09816 0 1 1151.3359 425.45703 C 1146.3466 426.3211 1141.3271 426.99606 1136.2246 427.12891 C 1115.2944 428.7192 1094.5912 423.5465 1073.7949 421.85156 C 1052.6294 419.01572 1031.0766 415.3143 1012.2344 404.75195 C 1007.8719 402.90647 1003.2042 401.53975 998.44727 401.46484 z M 1258.7734 436.83203 A 48.341537 85.308587 39.09816 0 1 1233.1074 473.53125 C 1242.5247 474.31121 1252.7599 478.95033 1260.6426 482.12109 C 1272.3682 486.56525 1283.8468 492.26721 1294.9023 497.56641 C 1312.413 504.17291 1322.736 477.59816 1308.9766 467.41992 C 1296.0663 456.99304 1280.1387 451.09615 1266.7305 441.22266 C 1264.1276 439.64911 1261.4714 438.19186 1258.7734 436.83203 z M 1534.2734 502.60352 C 1536.5479 502.69846 1531.2501 505.88404 1531.8027 506.68164 C 1523.1594 513.5962 1507.0132 512.736 1498.9375 508.42188 C 1509.3807 502.60875 1522.3418 505.95901 1533.7129 502.62695 C 1533.9358 502.60419 1534.1218 502.59719 1534.2734 502.60352 z "
     transform="scale(0.93749998)"
     id="selection_to_path" />
  <path
     style="fill:none;stroke:#782670;stroke-width:13.33333397;stroke-linecap:round;stroke-linejoin:miter;stroke-miterlimit:4;stroke-dasharray:3.33333344, 3.33333344;stroke-dashoffset:4;stroke-opacity:1"
     d="m 1075.6233,470.39789 -12.7832,267.6665"
     id="path5243"
     inkscape:connector-curvature="0"
     sodipodi:nodetypes="cc"
     inkscape:export-filename="/home/oms/Documents/ratt/ratt-logo-80pix.png"
     inkscape:export-xdpi="23.467333"
     inkscape:export-ydpi="23.467333" />
  <path
     style="fill:none;stroke:#782670;stroke-width:13.33333397;stroke-linecap:round;stroke-linejoin:miter;stroke-miterlimit:2.20000029;stroke-dasharray:1.33333338, 1.33333338;stroke-dashoffset:4;stroke-opacity:1"
     d="m 1160.6745,438.55224 189.6311,178.06427"
     id="path5245"
     inkscape:connector-curvature="0"
     sodipodi:nodetypes="cc"
     inkscape:export-filename="/home/oms/Documents/ratt/ratt-logo-80pix.png"
     inkscape:export-xdpi="23.467333"
     inkscape:export-ydpi="23.467333" />
  <flowRoot
     xml:space="preserve"
     id="flowRoot5280"
     style="font-style:normal;font-weight:normal;line-height:0.01%;font-family:'Bitstream Vera Sans';letter-spacing:0px;word-spacing:0px;fill:#000000;fill-opacity:1;stroke:none"
     transform="matrix(4.4444445,0,0,4.4444445,552.31806,0.00163985)"><flowRegion
       id="flowRegion5282"><rect
         id="rect5284"
         width="123.53886"
         height="128.43149"
         x="-42.810497"
         y="174.70853" /></flowRegion><flowPara
       style="font-size:72px;line-height:1.25"
       id="flowPara5288"> </flowPara></flowRoot>  <flowRoot
     xml:space="preserve"
     id="flowRoot2996"
     style="font-style:normal;font-variant:normal;font-weight:normal;font-stretch:normal;line-height:0.01%;font-family:Arial;-inkscape-font-specification:Arial;text-align:start;letter-spacing:0px;word-spacing:0px;writing-mode:lr-tb;text-anchor:start;fill:#000000;fill-opacity:1;stroke:none"
     transform="translate(552.31807,0.00163985)"><flowRegion
       id="flowRegion2998"><rect
         id="rect3000"
         width="243.40825"
         height="141.88622"
         x="-417.09656"
         y="64.62439"
         style="font-style:normal;font-variant:normal;font-weight:normal;font-stretch:normal;font-size:640px;line-height:125%;font-family:Arial;-inkscape-font-specification:Arial;text-align:start;writing-mode:lr-tb;text-anchor:start" /></flowRegion><flowPara
       id="flowPara3008"
       style="font-size:640px;line-height:1.25">RATTR</flowPara></flowRoot>  <flowRoot
     xml:space="preserve"
     id="flowRoot3010"
     style="font-style:normal;font-variant:normal;font-weight:normal;font-stretch:normal;line-height:0.01%;font-family:'Arial Black';-inkscape-font-specification:'Arial Black,';text-align:start;letter-spacing:0px;word-spacing:0px;writing-mode:lr-tb;text-anchor:start;fill:#000000;fill-opacity:1;stroke:none"
     transform="matrix(4.4444445,0,0,4.4444445,552.31806,0.00163985)"><flowRegion
       id="flowRegion3012"><rect
         id="rect3014"
         width="384.07132"
         height="178.58093"
         x="-432.99759"
         y="-32.005016"
         style="font-style:normal;font-variant:normal;font-weight:normal;font-stretch:normal;font-size:144px;line-height:125%;font-family:'Arial Black';-inkscape-font-specification:'Arial Black,';text-align:start;writing-mode:lr-tb;text-anchor:start" /></flowRegion><flowPara
       id="flowPara3016"
       style="font-size:144px;line-height:1.25">RATTRA</flowPara></flowRoot>  <path
     sodipodi:type="arc"
     style="fill:none;fill-opacity:0;stroke:#782670;stroke-width:22.78364182;stroke-linecap:round;stroke-miterlimit:4;stroke-dasharray:none;stroke-dashoffset:0;stroke-opacity:1"
     id="path2983-6"
     sodipodi:cx="1360.1243"
     sodipodi:cy="566.03839"
     sodipodi:rx="399.52374"
     sodipodi:ry="479.069"
     d="m 1624.4053,925.318 a 399.52374,479.069 0 0 1 -561.6617,-39.35587 399.52374,479.069 0 0 1 28.0744,-673.79721 399.52374,479.069 0 0 1 562.1362,27.9699 399.52374,479.069 0 0 1 -18.5754,674.26986"
     transform="matrix(1,0,-0.30819049,0.95132467,0,0)"
     sodipodi:start="0.84799221"
     sodipodi:end="0.81419539"
     sodipodi:open="true"
     inkscape:export-filename="/home/oms/Documents/ratt/ratt-logo-80pix.png"
     inkscape:export-xdpi="23.467333"
     inkscape:export-ydpi="23.467333" />
  <path
     sodipodi:type="arc"
     style="fill:none;fill-opacity:1;stroke:#78266f;stroke-width:13.33333397;stroke-linecap:round;stroke-miterlimit:4;stroke-dasharray:none;stroke-dashoffset:0;stroke-opacity:1"
     id="path3791-3"
     sodipodi:cx="1128.0955"
     sodipodi:cy="-400.82465"
     sodipodi:rx="45.32019"
     sodipodi:ry="79.976799"
     d="m 1158.0743,-340.84574 a 45.32019,79.976799 0 0 1 -63.7124,-6.57016 45.32019,79.976799 0 0 1 3.1847,-112.48514 45.32019,79.976799 0 0 1 63.7662,4.66936 45.32019,79.976799 0 0 1 -2.1071,112.56404"
     transform="rotate(39.09816)"
     sodipodi:start="0.84799221"
     sodipodi:end="0.81419539"
     sodipodi:open="true"
     inkscape:transform-center-x="-3.5989559"
     inkscape:transform-center-y="-3.5989559"
     inkscape:export-filename="/home/oms/Documents/ratt/ratt-logo-80pix.png"
     inkscape:export-xdpi="23.467333"
     inkscape:export-ydpi="23.467333" />
  <flowRoot
     xml:space="preserve"
     id="flowRoot840-3"
     style="font-style:normal;font-weight:normal;font-size:40px;line-height:1.25;font-family:sans-serif;letter-spacing:0px;word-spacing:0px;fill:#782670;fill-opacity:1;stroke:none"
     transform="matrix(2.0279646,0,0,2.0074925,1718.2407,-2799.4618)"><flowRegion
       id="flowRegion842-6"
       style="fill:#782670;fill-opacity:1"><rect
         id="rect844-7"
         width="3502.9114"
         height="504.26981"
         x="35.278137"
         y="1558.252"
         style="fill:#782670;fill-opacity:1" /></flowRegion><flowPara
       id="flowPara846-5"
       style="font-style:normal;font-variant:normal;font-weight:bold;font-stretch:normal;font-size:96px;font-family:'TeX Gyre Pagella';-inkscape-font-specification:'TeX Gyre Pagella, Normal';font-variant-ligatures:normal;font-variant-caps:normal;font-variant-numeric:normal;font-feature-settings:normal;text-align:start;writing-mode:lr-tb;text-anchor:start;fill:#782670;fill-opacity:1">https://ratt.center</flowPara></flowRoot></svg>
