<?xml version="1.0" encoding="UTF-8" standalone="no"?>
<svg
   xmlns:osb="http://www.openswatchbook.org/uri/2009/osb"
   xmlns:dc="http://purl.org/dc/elements/1.1/"
   xmlns:cc="http://creativecommons.org/ns#"
   xmlns:rdf="http://www.w3.org/1999/02/22-rdf-syntax-ns#"
   xmlns:svg="http://www.w3.org/2000/svg"
   xmlns="http://www.w3.org/2000/svg"
   xmlns:sodipodi="http://sodipodi.sourceforge.net/DTD/sodipodi-0.dtd"
   xmlns:inkscape="http://www.inkscape.org/namespaces/inkscape"
   height="4500"
   id="svg2"
   inkscape:version="0.92.3 (2405546, 2018-03-11)"
   sodipodi:docname="ratt-logo-square.svg"
   sodipodi:version="0.32"
   viewBox="0 0 4218.75 4218.7499"
   width="4500"
   version="1.1"
   inkscape:export-filename="/home/oms/projects/logo-designs/ratt/ratt-logo-square-1250pix.png"
   inkscape:export-xdpi="26.67"
   inkscape:export-ydpi="26.67">
  <metadata
     id="metadata3">
    <rdf:RDF>
      <cc:Work
         rdf:about="">
        <dc:title></dc:title>
        <dc:description />
        <dc:subject>
          <rdf:Bag>
            <rdf:li>shape</rdf:li>
          </rdf:Bag>
        </dc:subject>
        <dc:publisher>
          <cc:Agent
             rdf:about="http://www.openclipart.org/">
            <dc:title>Open Clip Art Library</dc:title>
          </cc:Agent>
        </dc:publisher>
        <dc:creator>
          <cc:Agent>
            <dc:title>yves GUILLOU</dc:title>
          </cc:Agent>
        </dc:creator>
        <dc:rights>
          <cc:Agent>
            <dc:title />
          </cc:Agent>
        </dc:rights>
        <dc:date />
        <dc:format>image/svg+xml</dc:format>
        <dc:type
           rdf:resource="http://purl.org/dc/dcmitype/StillImage" />
        <cc:license
           rdf:resource="http://web.resource.org/cc/PublicDomain" />
        <dc:language>en</dc:language>
      </cc:Work>
      <cc:License
         rdf:about="http://web.resource.org/cc/PublicDomain">
        <cc:permits
           rdf:resource="http://web.resource.org/cc/Reproduction" />
        <cc:permits
           rdf:resource="http://web.resource.org/cc/Distribution" />
        <cc:permits
           rdf:resource="http://web.resource.org/cc/DerivativeWorks" />
      </cc:License>
    </rdf:RDF>
  </metadata>
  <defs
     id="defs6">
    <linearGradient
       id="linearGradient5260"
       osb:paint="solid">
      <stop
         style="stop-color:#ffffff;stop-opacity:1;"
         offset="0"
         id="stop5262" />
    </linearGradient>
    <linearGradient
       id="linearGradient3793"
       osb:paint="solid">
      <stop
         style="stop-color:#782670;stop-opacity:1;"
         offset="0"
         id="stop3795" />
    </linearGradient>
  </defs>
  <sodipodi:namedview
     bordercolor="#666666"
     borderopacity="1.0"
     id="base"
     inkscape:current-layer="svg2"
     inkscape:cx="1571.0147"
     inkscape:cy="2023.9216"
     inkscape:pageopacity="0.0"
     inkscape:pageshadow="2"
     inkscape:window-height="1991"
     inkscape:window-width="3064"
     inkscape:window-x="3966"
     inkscape:window-y="2263"
     inkscape:zoom="0.60408549"
     pagecolor="#ffffff"
     showgrid="false"
     inkscape:window-maximized="0"
     fit-margin-top="0"
     fit-margin-left="0"
     fit-margin-right="0"
     fit-margin-bottom="0" />
  <flowRoot
     xml:space="preserve"
     id="flowRoot3018"
     style="font-style:normal;font-variant:normal;font-weight:bold;font-stretch:normal;font-size:12.00009346px;line-height:0.01%;font-family:'TeX Gyre Pagella';-inkscape-font-specification:'TeX Gyre Pagella, Bold';font-variant-ligatures:normal;font-variant-caps:normal;font-variant-numeric:normal;font-feature-settings:normal;text-align:start;letter-spacing:0px;word-spacing:0px;writing-mode:lr-tb;text-anchor:start;fill:#782670;fill-opacity:1;stroke:none"
     transform="matrix(101.5244,0,0,102.98803,46721.68,-1136.1399)"><flowRegion
       id="flowRegion3020"
       style="font-style:normal;font-variant:normal;font-weight:bold;font-stretch:normal;font-size:12.00009346px;font-family:'TeX Gyre Pagella';-inkscape-font-specification:'TeX Gyre Pagella, Bold';font-variant-ligatures:normal;font-variant-caps:normal;font-variant-numeric:normal;font-feature-settings:normal;text-align:start;writing-mode:lr-tb;text-anchor:start"><rect
         id="rect3022"
         width="1022.5593"
         height="473.36176"
         x="-456.23758"
         y="27.929678"
         style="font-style:normal;font-variant:normal;font-weight:bold;font-stretch:normal;font-size:12.00009346px;font-family:'TeX Gyre Pagella';-inkscape-font-specification:'TeX Gyre Pagella, Bold';font-variant-ligatures:normal;font-variant-caps:normal;font-variant-numeric:normal;font-feature-settings:normal;text-align:start;writing-mode:lr-tb;text-anchor:start;fill:#782670" /></flowRegion><flowPara
       id="flowPara3024"
       style="font-style:normal;font-variant:normal;font-weight:bold;font-stretch:normal;font-size:12.00009346px;line-height:1.25;font-family:'TeX Gyre Pagella';-inkscape-font-specification:'TeX Gyre Pagella, Bold';font-variant-ligatures:normal;font-variant-caps:normal;font-variant-numeric:normal;font-feature-settings:normal;text-align:start;writing-mode:lr-tb;text-anchor:start;fill:#782670">RATT</flowPara></flowRoot>  <path
     sodipodi:type="arc"
     style="fill:#ffffff;stroke:#782670;stroke-width:22.78364182;stroke-linecap:round;stroke-miterlimit:4;stroke-dasharray:none;stroke-dashoffset:0;stroke-opacity:1"
     id="path2983"
     sodipodi:cx="2279.3855"
     sodipodi:cy="2045.796"
     sodipodi:rx="399.52374"
     sodipodi:ry="479.069"
     d="m 2543.6665,2405.0756 a 399.52374,479.069 0 0 1 -561.6617,-39.3558 399.52374,479.069 0 0 1 28.0744,-673.7973 399.52374,479.069 0 0 1 562.1362,27.97 399.52374,479.069 0 0 1 -18.5753,674.2698"
     transform="matrix(1,0,-0.30819048,0.95132467,0,0)"
     sodipodi:start="0.84799221"
     sodipodi:end="0.81419539"
     sodipodi:open="true"
     inkscape:export-filename="/home/oms/Documents/ratt/ratt-logo-80pix.png"
     inkscape:export-xdpi="23.467333"
     inkscape:export-ydpi="23.467333" />
  <path
     d="m 1878.7224,1403.7767 c -34.9474,0.16 -68.6622,11.0044 -100.8225,23.7415 -39.0489,12.2007 -77.8195,25.3923 -115.3087,41.8565 -19.032,7.508 -37.8621,15.4165 -56.5646,23.6995 -14.1017,6.1395 -29.388,8.1677 -44.1059,12.0555 -15.8281,1.9869 -31.6188,4.8352 -47.5761,2.6122 -21.5572,-0.8594 -43.0567,-4.6505 -64.6284,-3.8273 -25.6747,1.7351 -51.318,4.4697 -76.3468,10.6538 -17.2179,3.5107 -34.3941,7.0117 -51.2939,11.8219 -12.2495,2.0659 -24.8592,3.2001 -37.247,2.0089 -12.3853,-1.4979 -25.7839,-11.6048 -23.7721,-25.3234 0.2962,-14.1206 -7.771,-29.3027 -22.503,-32.149 -12.4329,-2.6478 -25.3632,-0.5328 -37.8259,0.1781 -17.8809,4.6091 -39.2264,10.4899 -46.8812,29.3638 -7.4917,15.66 -2.3882,34.0038 8.0434,47.0039 9.579,14.4286 16.7565,33.7683 9.6117,50.7426 -5.2539,11.3375 -17.5489,16.6689 -25.5368,25.7931 -10.7517,10.8215 -22.8774,20.0684 -35.6335,28.3512 -17.91,14.5598 -25.4677,37.5241 -29.7452,59.3877 -4.4629,7.7152 -7.7033,23.4115 6.6259,20.0754 15.0868,4.9474 -4.1201,30.6765 -10.6044,12.6034 -6.9673,5.823 -5.0153,21.7285 -9.2011,31.0917 -4.2545,20.5045 -10.441,40.5759 -16.5248,60.5333 -3.5401,17.174 -16.0774,32.7751 -33.2136,37.747 -19.26555,9.4904 -19.90726,40.0777 -2.0119,51.4509 11.3701,8.6551 26.6876,7.5137 37.5509,16.747 13.9409,1.7824 24.2507,8.5781 38.2503,10.9793 14.1318,0.5086 28.3631,-4.6965 40.4366,-11.7187 7.962,-10.4191 19.8128,-18.3407 33.4954,-17.4896 11.029,-7.7205 27.3226,-9.0322 34.3186,-20.4603 13.3843,-1.2459 23.4249,-10.1686 34.968,-15.877 14.8746,-2.4261 24.6062,-15.9744 38.9076,-20.0745 13.3357,-4.0304 21.2378,-15.8482 31.943,-22.9904 7.0157,-9.2369 17.5015,-12.0242 23.1393,-22.1962 7.5555,-8.9561 14.0226,-19.2916 16.928,-30.7456 -2.2858,-9.2986 10.8403,-15.963 7.7538,-22.8017 -6.2396,-3.3797 -4.1115,-17.5113 -10.9257,-23.8112 -5.6435,-9.1896 -14.4868,-15.7454 -19.5549,-25.2785 -11.945,-16.2124 -36.4695,-20.6767 -42.2516,-41.7413 -4.2557,-11.0719 8.9157,-28.498 20.7385,-25.186 11.4784,-2.6312 21.8918,10.3511 22.6045,22.2252 2.1077,13.3292 3.1226,27.697 12.1622,38.4432 4.438,11.7755 9.6141,23.7067 20.2804,31.2228 13.6051,10.9449 29.1193,19.0278 44.4903,27.1109 11.6362,10.5238 27.5428,12.2814 42.1971,14.9689 12.0248,3.2479 25.031,-1.2281 36.5968,4.4836 13.991,0.8374 28.0117,-1.839 41.9518,0.6731 10.5065,2.2741 17.9607,-4.6342 26.4527,-0.3466 13.0825,-2.6772 26.2508,-2.0591 39.4135,-2.0726 17.8924,3.0302 35.3162,8.6141 52.1071,15.3954 10.0716,8.4917 24.1071,11.137 32.8837,21.2253 10.6745,6.3315 21.3211,13.1153 32.4756,18.3507 8.3217,0.2812 17.8523,10.1224 23.0631,8.9095 6.5606,-0.051 15.7629,5.9985 24.6626,4.3798 10.7366,3.8398 23.4965,4.5189 34.0296,12.7055 12.174,2.6074 24.3817,5.7164 36.7794,7.3822 8.6534,1.6487 19,-1.8031 27.3555,3.0926 -8.8397,3.3569 -19.7605,3.1182 -27.9336,9.2077 -16.0629,9.656 -19.2451,31.5646 -14.9499,48.3737 4.8384,18.158 22.8596,27.4285 38.0482,35.8475 14.2345,4.7647 30.1852,2.2971 37.6985,-11.4178 9.2768,-9.6181 -1.2202,-23.3149 5.5926,-33.3762 6.9296,-8.1869 18.9402,-7.2739 28.0404,-11.9853 12.3661,0.803 23.1631,-3.5072 32.8467,-11.5143 13.9135,-3.1995 21.8474,-16.9987 35.336,-21.4283 12.1023,-7.3478 19.9036,-20.7245 28.3438,-31.9427 5.1354,-11.6041 13.8308,-21.198 17.0061,-33.9235 5.3073,-10.6273 11.8894,-31.1575 -5.3995,-34.5941 -8.5772,5.4551 -17.5018,-1.1174 -8.1418,-8.5252 8.1684,-9.8271 23.8001,-17.2235 35.7738,-10.4655 9.8167,9.9782 18.2963,24.0711 15.8633,38.6401 -10.5529,70.9152 -31.2294,140.3212 -61.0431,205.5333 -9.3892,23.2686 -22.7012,44.7652 -35.2328,66.448 -38.5927,64.2626 -88.2591,123.159 -151.3511,164.5283 -62.1221,42.0801 -129.9238,76.4565 -201.8625,98.1906 -60.9116,18.332 -125.1729,24.9089 -188.6038,21.4639 -31.5265,-2.3552 -63.3798,-6.0326 -93.3764,-16.4296 -9.3335,-2.6008 -19.7586,-3.6629 -28.7923,0.5801 0.7656,16.6109 20.3379,20.3337 27.5632,32.0233 8.1307,5.2866 18.9584,5.3241 25.3694,13.5112 9.1362,2.7614 21.2876,6.9751 31.0949,10.2516 12.5645,5.0445 26.0038,6.3205 39.1971,9.8943 11.8892,1.6748 23.9346,3.8245 36.0095,4.2972 14.3488,4.0189 29.5646,-0.763 44.2405,1.7582 12.4754,1.0304 24.8876,-1.4658 37.2886,-0.7115 12.5656,-3.9864 25.4094,-1.8874 38.1188,-4.1528 12.3367,-0.7293 21.877,-7.1728 34.1478,-4.1874 11.3202,-6.8039 26.453,-3.4086 39.8024,-8.2902 9.9848,-2.8126 20.7394,-5.9519 29.6753,-7.3724 6.4069,-5.2065 16.4726,-3.2775 24.2868,-8.9213 11.8125,-2.5904 23.9329,-3.68 34.9569,-9.335 13.2308,-3.0518 25.0651,-6.2589 36.93,-12.9698 12.0038,-4.1721 24.6667,-5.9627 35.8985,-11.9004 8.4619,-0.4733 15.861,-16.7187 20.6042,-8.4421 10.5849,-6.7238 21.6471,-10.3181 32.5554,-16.8503 12.2439,-5.3669 20.7244,-16.201 33.511,-20.5889 8.7363,-8.3517 18.9479,-15.1488 28.671,-22.9176 6.2039,-9.2174 19.7384,-12.8062 26.3013,-22.771 5.8823,-10.2826 17.5316,-18.5014 27.4511,-27.6314 9.6903,-7.8816 14.9445,-19.4457 23.3272,-28.2701 8.9044,-6.2613 13.9141,-20.2509 21.4992,-29.8299 5.8515,4.6836 3.8088,-8.7486 8.6638,-11.0743 7.4758,-11.4944 17.5484,-21.0893 22.2784,-34.2579 8.8815,-11.5169 14.9655,-24.7434 23.485,-36.4606 6.8859,-9.2045 6.76,-21.9432 15.3359,-30.2548 9.7128,-6.5714 5.7677,-19.998 13.9624,-29.3302 4.2119,-11.7624 9.1217,-23.6581 14.138,-35.5179 6.6699,-6.3122 5.9754,-21.2362 9.4032,-25.2007 6.0582,-2.0789 -0.6639,-15.0702 6.5564,-18.6359 3.3749,-12.4883 8.6816,-24.4055 10.0354,-37.3735 3.0776,-13.1107 6.4619,-26.2961 6.8382,-39.83 7.1602,-13.1446 3.709,-28.6883 7.9484,-42.5826 2.1608,-14.4396 1.2964,-28.9506 1.8621,-43.4342 1.3559,-15.8431 0.7376,-31.7696 -0.1874,-47.6295 -2.5003,-20.3767 -4.9391,-41.1728 -14.2437,-59.817 -4.356,-13.2641 -7.0963,-27.092 -13.9017,-39.456 -7.4537,-18.5855 -20.1003,-34.193 -31.2402,-50.5748 -5.7782,-14.5673 -8.8862,-30.4443 -15.1669,-45.133 -8.1789,-19.3632 -18.7455,-38.0436 -32.5006,-53.9955 -26.025,-27.9825 -56.2947,-52.779 -91.8416,-67.586 -29.6718,-13.3506 -62.2996,-17.929 -94.5942,-18.4801 l -2.6657,-0.085 -2.6652,-0.072 z m -494.7188,375.9064 c -22.1546,2.4552 -33.1138,28.8943 -27.3062,48.568 3.8826,16.9832 14.9327,32.3951 30.2461,40.861 12.4374,-2.6647 9.2574,-22.7734 24.7388,-16.5141 9.9062,3.8299 20.8026,4.9419 26.6832,10.6158 12.1853,-2.5515 23.6641,5.5397 36.4072,-1.1053 13.16,-4.5006 26.0708,-9.9502 40.0122,-11.7067 13.0383,-4.2281 26.8838,1.8254 39.7136,-2.2552 12.107,-2.5171 26.8085,-5.6173 36.1805,3.4132 10.8681,-9.7831 28.9273,-1.1841 41.049,3.6918 10.9928,4.1664 21.7535,9.5113 32.1181,14.4793 16.4162,6.1936 26.0943,-18.72 13.1948,-28.2621 -12.1034,-9.7752 -27.0353,-15.3031 -39.6055,-24.5595 -23.085,-13.9557 -50.4186,-18.6825 -77.0323,-19.1757 -15.3907,-0.081 -29.9533,5.5623 -45.3168,5.9623 -19.6221,1.4909 -39.0314,-3.3582 -58.5279,-4.9472 -19.8427,-2.6586 -40.0475,-6.1287 -57.7121,-16.0309 -4.674,-1.9773 -9.724,-3.3674 -14.8427,-3.0347 z m 501.9376,98.5937 c -8.1031,6.4824 -23.2402,5.6756 -30.8112,1.6311 9.7905,-5.4498 21.9417,-2.3076 32.6021,-5.4314 3.3436,-0.3414 -2.3435,3.0027 -1.7909,3.8003 z"
     id="selection_to_path"
     style="fill:#782670;fill-opacity:1;stroke:#782670;stroke-width:1;stroke-opacity:1"
     inkscape:connector-curvature="0"
     inkscape:export-filename="/home/oms/Documents/ratt/ratt-logo-80pix.png"
     inkscape:export-xdpi="23.467333"
     inkscape:export-ydpi="23.467333" />
  <path
     sodipodi:type="arc"
     style="fill:#ffffff;fill-opacity:1;stroke:#78266f;stroke-width:13.33333397;stroke-linecap:round;stroke-miterlimit:4;stroke-dasharray:none;stroke-dashoffset:0;stroke-opacity:1"
     id="path3791"
     sodipodi:cx="2366.3892"
     sodipodi:cy="409.46555"
     sodipodi:rx="45.32019"
     sodipodi:ry="79.976799"
     d="m 2396.368,469.44445 a 45.32019,79.976799 0 0 1 -63.7124,-6.57015 45.32019,79.976799 0 0 1 3.1847,-112.48515 45.32019,79.976799 0 0 1 63.7662,4.66936 45.32019,79.976799 0 0 1 -2.1071,112.56405"
     transform="rotate(39.09816)"
     sodipodi:start="0.84799221"
     sodipodi:end="0.81419539"
     sodipodi:open="true"
     inkscape:transform-center-x="-3.5989559"
     inkscape:transform-center-y="-3.5989559"
     inkscape:export-filename="/home/oms/Documents/ratt/ratt-logo-80pix.png"
     inkscape:export-xdpi="23.467333"
     inkscape:export-ydpi="23.467333" />
  <path
     style="fill:none;stroke:#782670;stroke-width:13.33333397;stroke-linecap:round;stroke-linejoin:miter;stroke-miterlimit:4;stroke-dasharray:3.33333344, 3.33333344;stroke-dashoffset:4;stroke-opacity:1"
     d="m 1525.4991,1873.6609 -12.7832,267.6665"
     id="path5243"
     inkscape:connector-curvature="0"
     sodipodi:nodetypes="cc"
     inkscape:export-filename="/home/oms/Documents/ratt/ratt-logo-80pix.png"
     inkscape:export-xdpi="23.467333"
     inkscape:export-ydpi="23.467333" />
  <path
     style="fill:none;stroke:#782670;stroke-width:13.33333397;stroke-linecap:round;stroke-linejoin:miter;stroke-miterlimit:2.20000029;stroke-dasharray:1.33333338, 1.33333338;stroke-dashoffset:4;stroke-opacity:1"
     d="m 1610.5503,1841.8153 189.6311,178.0642"
     id="path5245"
     inkscape:connector-curvature="0"
     sodipodi:nodetypes="cc"
     inkscape:export-filename="/home/oms/Documents/ratt/ratt-logo-80pix.png"
     inkscape:export-xdpi="23.467333"
     inkscape:export-ydpi="23.467333" />
  <path
     style="fill:none;stroke:#ffffff;stroke-width:13.33333397;stroke-linecap:round;stroke-linejoin:miter;stroke-miterlimit:4;stroke-dasharray:3.33333344, 3.33333344;stroke-dashoffset:4;stroke-opacity:1"
     d="m 1634.9528,1756.9952 213.4757,-24.3514"
     id="path5247"
     inkscape:connector-curvature="0"
     sodipodi:nodetypes="cc"
     inkscape:export-filename="/home/oms/Documents/ratt/ratt-logo-80pix.png"
     inkscape:export-xdpi="23.467333"
     inkscape:export-ydpi="23.467333" />
  <flowRoot
     xml:space="preserve"
     id="flowRoot5280"
     style="font-style:normal;font-weight:normal;line-height:0.01%;font-family:'Bitstream Vera Sans';letter-spacing:0px;word-spacing:0px;fill:#000000;fill-opacity:1;stroke:none"
     transform="matrix(4.4444445,0,0,4.4444445,1002.1938,1403.2646)"><flowRegion
       id="flowRegion5282"><rect
         id="rect5284"
         width="123.53886"
         height="128.43149"
         x="-42.810497"
         y="174.70853" /></flowRegion><flowPara
       style="font-size:72px;line-height:1.25"
       id="flowPara5288"> </flowPara></flowRoot>  <flowRoot
     xml:space="preserve"
     id="flowRoot2996"
     style="font-style:normal;font-variant:normal;font-weight:normal;font-stretch:normal;line-height:0.01%;font-family:Arial;-inkscape-font-specification:Arial;text-align:start;letter-spacing:0px;word-spacing:0px;writing-mode:lr-tb;text-anchor:start;fill:#000000;fill-opacity:1;stroke:none"
     transform="translate(1002.1938,1403.2646)"><flowRegion
       id="flowRegion2998"><rect
         id="rect3000"
         width="243.40825"
         height="141.88622"
         x="-417.09656"
         y="64.62439"
         style="font-style:normal;font-variant:normal;font-weight:normal;font-stretch:normal;font-size:640px;line-height:125%;font-family:Arial;-inkscape-font-specification:Arial;text-align:start;writing-mode:lr-tb;text-anchor:start" /></flowRegion><flowPara
       id="flowPara3008"
       style="font-size:640px;line-height:1.25">RATTR</flowPara></flowRoot>  <flowRoot
     xml:space="preserve"
     id="flowRoot3010"
     style="font-style:normal;font-variant:normal;font-weight:normal;font-stretch:normal;line-height:0.01%;font-family:'Arial Black';-inkscape-font-specification:'Arial Black,';text-align:start;letter-spacing:0px;word-spacing:0px;writing-mode:lr-tb;text-anchor:start;fill:#000000;fill-opacity:1;stroke:none"
     transform="matrix(4.4444445,0,0,4.4444445,1002.1938,1403.2646)"><flowRegion
       id="flowRegion3012"><rect
         id="rect3014"
         width="384.07132"
         height="178.58093"
         x="-432.99759"
         y="-32.005016"
         style="font-style:normal;font-variant:normal;font-weight:normal;font-stretch:normal;font-size:144px;line-height:125%;font-family:'Arial Black';-inkscape-font-specification:'Arial Black,';text-align:start;writing-mode:lr-tb;text-anchor:start" /></flowRegion><flowPara
       id="flowPara3016"
       style="font-size:144px;line-height:1.25">RATTRA</flowPara></flowRoot></svg>
